<svg width="512" height="512" viewBox="0 0 512 512" fill="none" xmlns="http://www.w3.org/2000/svg">
<g clip-path="url(#clip0_116_9)">
<path d="M334.531 1C335.99 3.18336 338.393 3.95088 339.694 6.02637C342.616 10.6903 343.251 15.2876 340.686 20.1291C338.074 25.0601 334.172 27.5712 328.233 27.4416C315.078 27.1545 301.911 27.4693 288.752 27.2848C284.629 27.227 283.202 28.6241 283.275 32.7806C283.489 44.9384 283.4 57.1026 283.324 69.2636C283.303 72.6308 284.257 74.4572 288.07 74.6974C310.41 76.105 331.872 81.5065 352.588 89.8001C371.344 97.3088 388.721 107.334 404.69 119.737C408.083 122.371 411.305 125.224 415.174 128.451C420.581 123.148 425.886 117.945 431.19 112.742C441.617 102.512 441.681 102.445 431.204 92.3773C427.483 88.8012 424.531 85.1746 424.587 79.5849C424.639 74.2977 426.268 70.1515 431.047 67.6002C436.119 64.8919 441.203 64.7608 446.16 67.912C452.142 71.7141 456.441 77.3524 461.441 82.2051C471.722 92.1806 481.806 102.362 491.797 112.629C496.042 116.99 498.866 121.834 497.539 128.637C495.428 139.457 481.821 142.592 474.441 135.429C470.049 131.165 465.987 126.56 461.845 122.18C452.693 131.582 444.28 140.225 435.652 149.089C442.623 156.992 449.154 165.938 455.15 175.269C471.236 200.306 481.25 227.681 486.304 256.922C488.997 272.505 490.267 288.254 489.24 304.02C487.406 332.16 481.382 359.281 469.558 385.147C459.363 407.45 445.869 427.216 429.134 445.061C399.342 476.829 363.023 497.202 321.08 507.85C311.483 510.286 301.687 512.153 291.362 512.842C274.646 513 258.292 513 241.469 513C238.253 510.061 234.354 511.163 231.101 510.609C208.991 506.841 188.038 499.71 168.168 489.496C152.197 481.287 137.241 471.459 124.024 459.165C121.107 456.451 117.976 453.959 115.138 451.167C108.592 444.727 107.979 436.064 113.514 430.339C119.216 424.441 128.838 424.578 135.237 431.122C144.001 440.085 153.882 447.669 164.266 454.503C187.861 470.03 213.719 479.758 241.757 483.791C279.423 489.21 315.357 483.902 349.961 468.01C374.063 456.941 394.902 441.544 412.528 421.988C426.487 406.503 437.488 388.925 445.775 369.669C453.314 352.154 458.158 333.944 460.467 315.091C462.555 298.043 461.78 281.043 459.138 264.025C456.028 244.002 449.958 224.963 440.898 206.98C433.576 192.447 424.569 178.84 413.589 166.736C397.968 149.514 380.145 134.847 359.546 124.039C340.982 114.298 321.323 107.361 300.403 104.264C289.892 102.708 279.376 101.194 268.771 101.436C240.798 102.076 213.919 107.553 188.465 119.704C170.347 128.352 153.945 139.257 139.116 152.802C134.832 156.716 130.832 161.895 123.558 161.475C117.763 161.14 113.626 158.902 111.141 153.861C108.763 149.038 110.06 141.871 113.735 138.131C131.026 120.532 150.912 106.675 173.074 95.7794C193.391 85.7909 214.841 79.8314 236.939 75.8215C241.644 74.9678 246.509 74.81 251.307 74.7187C254.554 74.6569 255.71 73.4365 255.684 70.2424C255.582 57.5769 255.545 44.9089 255.701 32.2445C255.746 28.5125 254.327 27.2862 250.706 27.32C237.374 27.4441 224.04 27.3689 210.707 27.3501C203.733 27.3403 199.533 24.5213 197.335 18.4343C195.324 12.8653 197.119 7.07659 202.149 2.88409C202.656 2.46093 203.136 2.00424 203.814 1.28155C247.354 1 290.709 1 334.531 1Z" fill="#FACC15"/>
<path d="M382.314 193.233C382.816 198.731 380.567 202.528 377.076 206.002C356.3 226.673 335.655 247.475 314.835 268.101C311.888 271.021 311.019 273.363 312.577 277.609C322.249 303.968 307.02 333.068 279.955 338.882C256.559 343.907 232.098 331.704 225.371 306.759C220.747 289.613 224.072 274.193 236.504 261.195C248.439 248.717 269.18 244.216 285.259 250.696C288.894 252.161 291.152 251.742 293.936 248.923C313.24 229.377 332.72 210.005 352.171 190.605C354.517 188.265 356.834 185.92 359.669 184.068C369.863 177.408 379.233 180.962 382.314 193.233ZM286.823 298.24C289.487 288.014 284.15 279.431 273.001 276.014C265.603 273.747 255.126 279.69 252.371 287.718C249.264 296.768 253.847 307.285 262.305 310.514C272.743 314.499 282.342 309.962 286.823 298.24Z" fill="white"/>
<path opacity="0.6" d="M143.882 391.366C106.25 391.367 69.1021 391.379 31.9539 391.361C24.0423 391.357 19.1232 388.216 16.6635 381.771C13.3065 372.975 19.5389 363.676 28.9834 363.664C69.2967 363.615 109.61 363.632 149.923 363.666C156.089 363.671 161.529 368.235 162.286 373.791C163.429 382.174 160.414 388.034 153.716 390.244C150.693 391.241 147.555 391.591 143.882 391.366Z" fill="white"/>
<path d="M193.098 291.51C193.465 301.882 188.15 307.361 178.136 307.363C139.162 307.374 100.188 307.372 61.2142 307.362C51.9843 307.359 46.7983 302.881 46.6582 294.865C46.4936 285.44 51.6677 279.852 61.1099 279.684C70.767 279.511 80.4296 279.64 90.0898 279.641C118.904 279.644 147.718 279.622 176.532 279.669C185.681 279.684 190.128 282.866 193.098 291.51Z" fill="white"/>
<path opacity="0.6" d="M143.926 224.352C105.803 224.359 68.1678 224.397 30.5331 224.351C19.9532 224.338 13.0355 214.698 16.9497 205.312C19.1636 200.003 23.4483 196.74 29.3093 196.725C69.4417 196.624 109.575 196.741 149.707 196.595C155.923 196.573 162.941 203.622 162.495 209.877C161.91 218.08 157.404 223.945 149.91 224.323C148.082 224.415 146.247 224.346 143.926 224.352Z" fill="white"/>
<path opacity="0.6" d="M344.1 384.412C343.603 376.854 346.151 372.043 351.511 369.739C357.475 367.175 363.644 368.423 368.382 373.152C374.159 378.917 379.987 384.632 385.699 390.46C390.691 395.556 390.746 405.294 385.945 410.441C381.664 415.031 371.805 415.531 366.791 410.858C359.974 404.505 353.569 397.71 346.996 391.095C345.27 389.358 344.739 387.082 344.1 384.412Z" fill="white"/>
<path opacity="0.6" d="M282.191 138.366C283.116 140.078 283.353 141.524 283.349 143.057C283.325 151.722 283.506 160.392 283.284 169.051C283.074 177.255 276.946 182.554 268.43 182.342C261.296 182.165 255.725 176.193 255.667 168.526C255.606 160.527 255.624 152.528 255.657 144.53C255.689 136.713 259.215 131.785 265.98 129.975C272.216 128.308 278.19 131.298 282.191 138.366Z" fill="white"/>
<path opacity="0.6" d="M391.587 307.29C382.419 305.435 378.779 295.425 381.807 288.478C384.481 282.343 389.659 280.034 395.707 279.748C403.509 279.38 411.345 279.519 419.16 279.71C426.013 279.878 431.624 284.368 433.086 290.394C434.641 296.797 431.704 302.979 425.759 306.361C424.02 307.35 422.28 307.351 420.476 307.354C410.993 307.366 401.51 307.337 391.587 307.29Z" fill="white"/>
<path opacity="0.6" d="M283.35 434.989C283.349 438.143 283.365 440.8 283.344 443.457C283.279 451.516 277.101 458.14 269.587 458.225C262.099 458.311 255.706 451.685 255.662 443.704C255.617 435.567 255.621 427.429 255.66 419.292C255.698 411.417 260.988 406.045 268.267 405.586C277.901 404.978 282.863 411.386 283.284 419.05C283.565 424.183 283.345 429.343 283.35 434.989Z" fill="white"/>
</g>
<defs>
<clipPath id="clip0_116_9">
<rect width="512" height="512" fill="white"/>
</clipPath>
</defs>
</svg>
