<svg width="1920" height="665" viewBox="0 0 1920 665" fill="none" xmlns="http://www.w3.org/2000/svg">
<path d="M640.32 63.6844C651.319 94.0772 676.614 153.478 689.812 147.938C706.31 141.013 711.023 113.313 731.055 132.934C751.088 152.554 764.05 175.638 775.834 124.855C787.618 74.0718 794.688 40.6012 837.11 91.3841C879.531 142.167 873.639 41.7554 890.137 76.3801C906.634 111.005 903.099 152.554 936.093 162.942C969.088 173.329 973.801 168.713 978.515 201.029C983.228 233.345 1007.97 255.274 1026.83 187.179C1045.68 119.084 1072.79 -30.9565 1114.03 53.297C1155.27 137.55 1168.23 37.1389 1195.34 61.3762C1222.44 85.6135 1237.76 127.163 1261.33 57.9137C1273.9 20.9807 1278.78 6.27588 1280.18 1.83025V1.36004C1280.7 -0.0505911 1280.88 -0.392565 1280.18 1.83025V665H640.32V63.6844Z" fill="url(#paint0_linear_129_8)"/>
<path d="M1920 63.6844C1909 94.0772 1883.71 153.478 1870.51 147.938C1854.01 141.013 1849.3 113.313 1829.26 132.934C1809.23 152.554 1796.27 175.638 1784.49 124.855C1772.7 74.0718 1765.63 40.6012 1723.21 91.3841C1680.79 142.167 1686.68 41.7554 1670.18 76.3801C1653.69 111.005 1657.22 152.554 1624.23 162.942C1591.23 173.329 1586.52 168.713 1581.81 201.029C1577.09 233.345 1552.35 255.274 1533.49 187.179C1514.64 119.084 1487.54 -30.9565 1446.29 53.297C1405.05 137.55 1392.09 37.1389 1364.98 61.3762C1337.88 85.6135 1322.56 127.163 1298.99 57.9137C1286.43 20.9807 1281.54 6.27588 1280.14 1.83025V1.36004C1279.62 -0.0505911 1279.44 -0.392565 1280.14 1.83025V665H1920V63.6844Z" fill="url(#paint1_linear_129_8)"/>
<path d="M641 63.4743C629.973 93.8778 604.611 153.299 591.378 147.757C574.838 140.83 570.112 113.12 550.027 132.748C529.942 152.375 516.946 175.467 505.131 124.666C493.316 73.8654 486.227 40.3832 443.695 91.1838C401.162 141.984 407.069 41.5377 390.528 76.1745C373.988 110.811 377.532 152.375 344.451 162.766C311.37 173.158 306.644 168.539 301.918 200.867C297.192 233.195 272.381 255.131 253.478 187.012C234.574 118.893 207.401 -31.1996 166.049 53.0833C124.698 137.366 111.701 36.9196 84.5276 61.1654C57.3538 85.4111 41.9947 126.975 18.3653 57.7017C5.763 20.756 0.862061 6.046 -0.538208 1.59871V1.12826C-1.06329 -0.282886 -1.23834 -0.624969 -0.538208 1.59871V665H641V63.4743Z" fill="url(#paint2_linear_129_8)"/>
<defs>
<linearGradient id="paint0_linear_129_8" x1="960.48" y1="0.232178" x2="960.48" y2="665" gradientUnits="userSpaceOnUse">
<stop stop-color="#252525"/>
<stop offset="1" stop-color="#141413"/>
</linearGradient>
<linearGradient id="paint1_linear_129_8" x1="1599.84" y1="0.232178" x2="1599.84" y2="665" gradientUnits="userSpaceOnUse">
<stop stop-color="#252525"/>
<stop offset="1" stop-color="#141413"/>
</linearGradient>
<linearGradient id="paint2_linear_129_8" x1="320" y1="0" x2="320" y2="665" gradientUnits="userSpaceOnUse">
<stop stop-color="#252525"/>
<stop offset="1" stop-color="#141413"/>
</linearGradient>
</defs>
</svg>
