<svg width="1920" height="841" viewBox="0 0 1920 841" fill="none" xmlns="http://www.w3.org/2000/svg">
<path d="M628.362 3.75479C624.93 -3.95386 623.357 1.97038 623 5.89608V841H1215V105.466C1205.35 74.4175 1195.7 77.6294 1172.1 102.254C1148.51 126.879 1143.14 109.749 1119.55 54.0752C1095.96 -1.59839 1087.38 95.8304 1057.35 61.5697C1027.32 27.3091 1015.52 62.6404 1013.38 101.184C1011.23 139.727 991.928 142.939 976.913 146.151C961.899 149.363 957.609 160.069 957.609 175.058C957.609 190.047 941.522 209.319 929.725 208.248C917.928 207.178 872.884 130.091 852.507 72.2762C832.13 14.4613 822.478 29.4503 808.536 62.6404C794.594 95.8304 776.362 111.89 759.203 82.9826C742.043 54.0752 724.884 89.4065 706.652 112.961C688.42 136.515 632.652 13.3906 628.362 3.75479Z" fill="url(#paint0_linear_131_20)"/>
<path d="M-555.638 3.75479C-559.07 -3.95386 -560.643 1.97038 -561 5.89608V841H31V105.466C21.3478 74.4175 11.6956 77.6294 -11.8986 102.254C-35.4927 126.879 -40.8551 109.749 -64.4493 54.0752C-88.0435 -1.59839 -96.6232 95.8304 -126.652 61.5697C-156.681 27.3091 -168.478 62.6404 -170.623 101.184C-172.768 139.727 -192.072 142.939 -207.087 146.151C-222.101 149.363 -226.391 160.069 -226.391 175.058C-226.391 190.047 -242.478 209.319 -254.275 208.248C-266.072 207.178 -311.116 130.091 -331.493 72.2762C-351.87 14.4613 -361.522 29.4503 -375.464 62.6404C-389.406 95.8304 -407.638 111.89 -424.797 82.9826C-441.957 54.0752 -459.116 89.4065 -477.348 112.961C-495.58 136.515 -551.348 13.3906 -555.638 3.75479Z" fill="url(#paint1_linear_131_20)"/>
<path d="M1801.64 3.75479C1805.07 -3.95386 1806.64 1.97038 1807 5.89608V841H1215V105.466C1224.65 74.4175 1234.3 77.6294 1257.9 102.254C1281.49 126.879 1286.86 109.749 1310.45 54.0752C1334.04 -1.59839 1342.62 95.8304 1372.65 61.5697C1402.68 27.3091 1414.48 62.6404 1416.62 101.184C1418.77 139.727 1438.07 142.939 1453.09 146.151C1468.1 149.363 1472.39 160.069 1472.39 175.058C1472.39 190.047 1488.48 209.319 1500.28 208.248C1512.07 207.178 1557.12 130.091 1577.49 72.2762C1597.87 14.4613 1607.52 29.4503 1621.46 62.6404C1635.41 95.8304 1653.64 111.89 1670.8 82.9826C1687.96 54.0752 1705.12 89.4065 1723.35 112.961C1741.58 136.515 1797.35 13.3906 1801.64 3.75479Z" fill="url(#paint2_linear_131_20)"/>
<path d="M617.638 3.75479C621.07 -3.95386 622.643 1.97038 623 5.89608V841H31V105.466C40.6522 74.4175 50.3044 77.6294 73.8986 102.254C97.4927 126.879 102.855 109.749 126.449 54.0752C150.043 -1.59839 158.623 95.8304 188.652 61.5697C218.681 27.3091 230.478 62.6404 232.623 101.184C234.768 139.727 254.072 142.939 269.087 146.151C284.101 149.363 288.391 160.069 288.391 175.058C288.391 190.047 304.478 209.319 316.275 208.248C328.072 207.178 373.116 130.091 393.493 72.2762C413.87 14.4613 423.522 29.4503 437.464 62.6404C451.406 95.8304 469.638 111.89 486.797 82.9826C503.957 54.0752 521.116 89.4065 539.348 112.961C557.58 136.515 613.348 13.3906 617.638 3.75479Z" fill="url(#paint3_linear_131_20)"/>
<path d="M1812.36 3.75479C1808.93 -3.95386 1807.36 1.97038 1807 5.89608V841H2399V105.466C2389.35 74.4175 2379.7 77.6294 2356.1 102.254C2332.51 126.879 2327.14 109.749 2303.55 54.0752C2279.96 -1.59839 2271.38 95.8304 2241.35 61.5697C2211.32 27.3091 2199.52 62.6404 2197.38 101.184C2195.23 139.727 2175.93 142.939 2160.91 146.151C2145.9 149.363 2141.61 160.069 2141.61 175.058C2141.61 190.047 2125.52 209.319 2113.72 208.248C2101.93 207.178 2056.88 130.091 2036.51 72.2762C2016.13 14.4613 2006.48 29.4503 1992.54 62.6404C1978.59 95.8304 1960.36 111.89 1943.2 82.9826C1926.04 54.0752 1908.88 89.4065 1890.65 112.961C1872.42 136.515 1816.65 13.3906 1812.36 3.75479Z" fill="url(#paint4_linear_131_20)"/>
<defs>
<linearGradient id="paint0_linear_131_20" x1="919" y1="0" x2="919" y2="841" gradientUnits="userSpaceOnUse">
<stop stop-color="#1D1D1D"/>
<stop offset="1" stop-color="#141413"/>
</linearGradient>
<linearGradient id="paint1_linear_131_20" x1="-265" y1="0" x2="-265" y2="841" gradientUnits="userSpaceOnUse">
<stop stop-color="#1D1D1D"/>
<stop offset="1" stop-color="#141413"/>
</linearGradient>
<linearGradient id="paint2_linear_131_20" x1="1511" y1="0" x2="1511" y2="841" gradientUnits="userSpaceOnUse">
<stop stop-color="#1D1D1D"/>
<stop offset="1" stop-color="#141413"/>
</linearGradient>
<linearGradient id="paint3_linear_131_20" x1="327" y1="0" x2="327" y2="841" gradientUnits="userSpaceOnUse">
<stop stop-color="#1D1D1D"/>
<stop offset="1" stop-color="#141413"/>
</linearGradient>
<linearGradient id="paint4_linear_131_20" x1="2103" y1="0" x2="2103" y2="841" gradientUnits="userSpaceOnUse">
<stop stop-color="#1D1D1D"/>
<stop offset="1" stop-color="#141413"/>
</linearGradient>
</defs>
</svg>
